<svg width="390" height="77" viewBox="0 0 390 77" fill="none" xmlns="http://www.w3.org/2000/svg">
<path d="M290.697 0.0527768C283.769 0.0527768 277.317 2.69827 273.002 7.31509C269.294 11.2809 267.451 16.2728 267.668 21.7552V21.8569C268.018 27.94 270.893 33.1153 276.004 36.9245L275.988 36.9513L276.823 37.5085C276.963 37.6079 277.111 37.7037 277.261 37.8031L277.313 37.8352C278.187 38.4177 279.126 38.9544 280.181 39.4688C280.271 39.5133 280.356 39.5562 280.442 39.5973L281.923 40.299L281.945 40.2616C284.154 41.1836 286.434 41.8822 288.656 42.5644C293.167 43.9457 297.413 45.2495 299.801 47.9088C299.958 48.0905 300.114 48.27 300.254 48.4553L300.395 48.6481C300.411 48.6755 300.435 48.7053 300.468 48.7499L300.484 48.7873C301.596 50.3777 302.137 52.1724 302.137 54.2786C302.137 61.8969 295.694 65.884 289.325 65.884C282.795 65.884 278.77 65.1765 272.227 60.9668L270.908 60.1151L265.162 69.5401L266.487 70.3918C275.135 75.9498 281.188 77 289.33 77C295.539 77 301.345 74.8582 305.683 70.9748C310.384 66.7656 312.975 60.8378 312.975 54.2741C312.975 49.8455 311.743 45.837 309.33 42.3527L309.308 42.3206C309.238 42.228 309.175 42.1293 309.105 42.0367L309.047 41.9617C308.684 41.4509 308.283 40.9623 307.879 40.4995L307.858 40.4781C307.831 40.4438 307.802 40.4029 307.759 40.3549C303.352 35.4599 297.199 33.5732 291.766 31.9089C289.306 31.1546 286.987 30.4377 285.076 29.5362L284.904 29.4558C284.343 29.1816 283.796 28.8764 283.292 28.5507L283.162 28.4703C280.202 26.5506 278.673 24.1904 278.491 21.257C278.408 18.8883 279.214 16.7314 280.822 15.0137C283.102 12.5733 286.711 11.1738 290.706 11.1738C295.71 11.1738 300.191 12.6307 304.407 15.6282L305.695 16.544L311.861 7.40382L310.578 6.48803C304.511 2.16267 297.795 0 290.646 0L290.697 0.0527768ZM0 1.86391V75.1991H10.7284V44.0494H42.5582V75.1991H53.2909V1.86391H42.5582V33.018H10.7284V1.86391H0ZM110.923 1.86391L83.0236 75.1991H95.1992L116.114 18.5067L137.029 75.1991H149.201L121.305 1.86391H110.919H110.923ZM201.829 1.86391L173.925 75.1991H186.104L207.015 18.5067L227.93 75.1991H240.11L212.206 1.86391H201.824H201.829ZM336.713 1.86391V12.8864H357.988V75.1857H368.725V12.8864H390V1.86391H336.705H336.713Z" fill="#DCC5B7"/>
</svg>
