<svg width="750" height="186" viewBox="0 0 750 186" fill="none" xmlns="http://www.w3.org/2000/svg">
<path d="M362.254 167.477H352.964L311.996 3.06173L287.933 3.06173L333.622 182.785L381.596 182.785L427.132 3.06173L403.069 3.06173L362.254 167.477Z" fill="#DCE2EB"/>
<path d="M638.215 3.06173V182.785H661.668V18.5235L724.414 18.5235V74.5531H680.401V89.8617L725.023 182.785H750L704.768 90.0148H746.954V3.06173L638.215 3.06173Z" fill="#DCE2EB"/>
<path d="M254.733 123.235C246.357 149.106 225.34 169.62 195.185 169.62C155.284 169.62 126.5 134.563 126.5 93.0765C126.5 50.8247 155.588 15.6148 194.424 15.6148C232.345 15.6148 254.276 44.3951 250.469 65.9802C248.641 76.084 241.331 81.7482 232.498 81.7482C217.573 81.7482 200.059 69.8074 170.209 69.9605C162.137 69.9605 153.456 71.7975 145.689 75.3185V91.3926C166.706 80.5235 186.2 85.2691 209.501 93.3827C230.061 100.578 253.21 105.936 267.983 91.2395C285.801 73.4815 272.856 42.2519 260.977 29.3926C243.768 10.8691 221.837 0 192.291 0C151.781 0 100 33.679 100 93.842C100 147.116 142.034 186 193.053 186C238.437 186 270.876 153.393 279.1 123.235H254.733Z" fill="#DCE2EB"/>
<path d="M588.566 123.235C580.19 149.106 559.173 169.62 529.018 169.62C489.117 169.62 460.333 134.563 460.333 93.0765C460.333 50.8247 489.421 15.6148 528.257 15.6148C566.179 15.6148 588.109 44.3951 584.302 65.9802C582.474 76.084 575.164 81.7482 566.331 81.7482C551.406 81.7482 533.892 69.8074 504.042 69.9605C495.97 69.9605 487.289 71.7975 479.522 75.3185V91.3926C500.539 80.5235 520.033 85.2691 543.334 93.3827C563.894 100.578 587.043 105.936 601.816 91.2395C619.635 73.4815 606.689 42.2519 594.81 29.3926C577.601 10.8691 555.67 0 526.125 0C485.614 0 433.833 33.679 433.833 93.842C433.833 147.116 475.867 186 526.886 186C572.27 186 604.709 153.393 612.933 123.235H588.566Z" fill="#DCE2EB"/>
</svg>
